<svg width="40" height="40" viewBox="0 0 40 40" fill="none" xmlns="http://www.w3.org/2000/svg">
<path d="M13.3306 35.0063V13.3306C13.3306 12.4097 14.0771 11.6632 14.9979 11.6632H25.0021C25.923 11.6632 26.6695 12.4097 26.6695 13.3306V35.0063" stroke="#3DAC45" stroke-width="2" stroke-linecap="round" stroke-linejoin="round"/>
<path fill-rule="evenodd" clip-rule="evenodd" d="M18.3324 6.66113H21.6671C22.588 6.66113 23.3345 7.40764 23.3345 8.32849V11.6632H16.665V8.32849C16.665 7.40764 17.4115 6.66113 18.3324 6.66113Z" stroke="#3DAC45" stroke-width="2" stroke-linecap="round" stroke-linejoin="round"/>
<path d="M20.0002 3.32642V6.66114" stroke="#3DAC45" stroke-width="2" stroke-linecap="round" stroke-linejoin="round"/>
<path d="M13.3305 35.0063V16.6653H6.66101C5.74016 16.6653 4.99365 17.4118 4.99365 18.3326V35.0063" stroke="#3DAC45" stroke-width="2" stroke-linecap="round" stroke-linejoin="round"/>
<path d="M26.6694 26.6695H30.8378" stroke="#3DAC45" stroke-width="2" stroke-linecap="round" stroke-linejoin="round"/>
<path d="M9.16211 21.6674H13.3305" stroke="#3DAC45" stroke-width="2" stroke-linecap="round" stroke-linejoin="round"/>
<path d="M9.16211 26.6695H13.3305" stroke="#3DAC45" stroke-width="2" stroke-linecap="round" stroke-linejoin="round"/>
<path d="M17.499 21.6674H22.5011" stroke="#3DAC45" stroke-width="2" stroke-linecap="round" stroke-linejoin="round"/>
<path d="M17.499 26.6695H22.5011" stroke="#3DAC45" stroke-width="2" stroke-linecap="round" stroke-linejoin="round"/>
<path d="M17.499 21.6674H22.5011" stroke="#3DAC45" stroke-width="2" stroke-linecap="round" stroke-linejoin="round"/>
<path d="M17.499 16.6652H22.5011" stroke="#3DAC45" stroke-width="2" stroke-linecap="round" stroke-linejoin="round"/>
<path d="M20.0002 32.5052V35.0063" stroke="#3DAC45" stroke-width="2" stroke-linecap="round" stroke-linejoin="round"/>
<path d="M36.6734 35.0063H3.32617" stroke="#3DAC45" stroke-width="2" stroke-linecap="round" stroke-linejoin="round"/>
<path d="M35.0062 35.0062V23.3347C35.0062 22.4139 34.2597 21.6674 33.3389 21.6674H26.6694V35.0062" stroke="#3DAC45" stroke-width="2" stroke-linecap="round" stroke-linejoin="round"/>
</svg>
