<svg width="40" height="40" viewBox="0 0 40 40" fill="none" xmlns="http://www.w3.org/2000/svg">
<path d="M20 12.0316C19.9449 12.0316 19.892 12.0536 19.8532 12.0928C19.8144 12.1319 19.7928 12.1849 19.7932 12.2401C19.7932 12.3552 19.8865 12.4485 20.0016 12.4485C20.1168 12.4485 20.2101 12.3552 20.2101 12.2401C20.2083 12.1251 20.115 12.0325 20 12.0316" stroke="#3DAC45" stroke-width="2" stroke-linecap="round" stroke-linejoin="round"/>
<path fill-rule="evenodd" clip-rule="evenodd" d="M34.9597 17.2205H5.04052C4.80719 17.221 4.58326 17.1286 4.41811 16.9637C4.25296 16.7989 4.16016 16.5752 4.16016 16.3418V13.0471C4.1607 12.3298 4.62003 11.6931 5.30063 11.4665L19.4432 6.75116C19.8048 6.63112 20.1954 6.63112 20.557 6.75116L34.6995 11.4665C35.3801 11.6931 35.8395 12.3298 35.84 13.0471V16.3418C35.84 16.5752 35.7472 16.7989 35.5821 16.9637C35.4169 17.1286 35.193 17.221 34.9597 17.2205Z" stroke="#3DAC45" stroke-width="2" stroke-linecap="round" stroke-linejoin="round"/>
<path d="M6.66132 30.0041V17.2205" stroke="#3DAC45" stroke-width="2" stroke-linecap="round" stroke-linejoin="round"/>
<path d="M33.3391 17.2205V30.0041" stroke="#3DAC45" stroke-width="2" stroke-linecap="round" stroke-linejoin="round"/>
<path d="M13.3308 17.2205V30.0041" stroke="#3DAC45" stroke-width="2" stroke-linecap="round" stroke-linejoin="round"/>
<path d="M20.0002 17.2205V30.0041" stroke="#3DAC45" stroke-width="2" stroke-linecap="round" stroke-linejoin="round"/>
<path d="M26.6696 17.2205V30.0041" stroke="#3DAC45" stroke-width="2" stroke-linecap="round" stroke-linejoin="round"/>
<path fill-rule="evenodd" clip-rule="evenodd" d="M33.9756 30.0042H6.02396C5.39259 30.0045 4.81557 30.3614 4.53334 30.9262L3.50291 32.9871C3.38655 33.2183 3.32617 33.4735 3.32617 33.7324V35.0062H36.6734V33.7324C36.6734 33.4735 36.613 33.2183 36.4967 32.9871L35.4662 30.9262C35.184 30.3614 34.607 30.0045 33.9756 30.0042Z" stroke="#3DAC45" stroke-width="2" stroke-linecap="round" stroke-linejoin="round"/>
<path d="M38.3411 35.0063H1.65918" stroke="#3DAC45" stroke-width="2" stroke-linecap="round" stroke-linejoin="round"/>
</svg>
