<svg xmlns="http://www.w3.org/2000/svg" width="536" height="382" viewBox="0 0 536 382"><rect width="100%" height="100%" fill="#DDDDDD"/><path fill="#999999" d="M107.6 181.73h4.96v20.52h-4.96v-20.52Zm5.64-5.98q0 .64-.26 1.2-.26.56-.69.98-.43.42-1.01.67-.58.25-1.24.25-.64 0-1.21-.25t-.99-.67q-.42-.42-.67-.98-.25-.56-.25-1.2 0-.66.25-1.24t.67-1q.42-.42.99-.67.57-.25 1.21-.25.66 0 1.24.25t1.01.67q.43.42.69 1 .26.58.26 1.24Zm9.3 26.5h-4.94v-20.52h3.02q.96 0 1.26.9l.32 1.52q.54-.6 1.13-1.1.59-.5 1.26-.86t1.44-.57q.77-.21 1.69-.21 1.94 0 3.19 1.05t1.87 2.79q.48-1.02 1.2-1.75t1.58-1.19q.86-.46 1.83-.68.97-.22 1.95-.22 1.7 0 3.02.52t2.22 1.52q.9 1 1.37 2.44.47 1.44.47 3.3v13.06h-4.94v-13.06q0-1.96-.86-2.95-.86-.99-2.52-.99-.76 0-1.41.26-.65.26-1.14.75-.49.49-.77 1.23t-.28 1.7v13.06h-4.96v-13.06q0-2.06-.83-3t-2.43-.94q-1.08 0-2.01.53-.93.53-1.73 1.45v15.02Zm39.4-5.3v-3.46q-2.14.1-3.6.37t-2.34.69q-.88.42-1.26.98t-.38 1.22q0 1.3.77 1.86t2.01.56q1.52 0 2.63-.55 1.11-.55 2.17-1.67Zm-10.44-10.78-.88-1.58q3.54-3.24 8.52-3.24 1.8 0 3.22.59 1.42.59 2.4 1.64.98 1.05 1.49 2.51.51 1.46.51 3.2v12.96h-2.24q-.7 0-1.08-.21-.38-.21-.6-.85l-.44-1.48q-.78.7-1.52 1.23t-1.54.89q-.8.36-1.71.55-.91.19-2.01.19-1.3 0-2.4-.35-1.1-.35-1.9-1.05-.8-.7-1.24-1.74-.44-1.04-.44-2.42 0-.78.26-1.55t.85-1.47q.59-.7 1.53-1.32.94-.62 2.31-1.08 1.37-.46 3.19-.75 1.82-.29 4.16-.35v-1.2q0-2.06-.88-3.05-.88-.99-2.54-.99-1.2 0-1.99.28t-1.39.63q-.6.35-1.09.63-.49.28-1.09.28-.52 0-.88-.27t-.58-.63Zm27.4 5.32q.92 0 1.6-.25t1.13-.69q.45-.44.68-1.06.23-.62.23-1.36 0-1.52-.91-2.41-.91-.89-2.73-.89-1.82 0-2.73.89-.91.89-.91 2.41 0 .72.23 1.34.23.62.68 1.07.45.45 1.14.7.69.25 1.59.25Zm5.58 11.68q0-.6-.36-.98t-.98-.59q-.62-.21-1.45-.31t-1.76-.15q-.93-.05-1.92-.09-.99-.04-1.93-.16-.82.46-1.33 1.08-.51.62-.51 1.44 0 .54.27 1.01t.86.81q.59.34 1.53.53.94.19 2.3.19 1.38 0 2.38-.21t1.65-.58q.65-.37.95-.88.3-.51.3-1.11Zm-.98-20.74h5.9v1.84q0 .88-1.06 1.08l-1.84.34q.42 1.06.42 2.32 0 1.52-.61 2.75t-1.69 2.09q-1.08.86-2.55 1.33-1.47.47-3.17.47-.6 0-1.16-.06-.56-.06-1.1-.16-.96.58-.96 1.3 0 .62.57.91.57.29 1.51.41.94.12 2.14.15 1.2.03 2.46.13t2.46.35q1.2.25 2.14.79.94.54 1.51 1.47.57.93.57 2.39 0 1.36-.67 2.64t-1.94 2.28q-1.27 1-3.12 1.61-1.85.61-4.21.61-2.32 0-4.04-.45-1.72-.45-2.86-1.2t-1.7-1.73q-.56-.98-.56-2.04 0-1.44.87-2.41.87-.97 2.39-1.55-.82-.42-1.3-1.12-.48-.7-.48-1.84 0-.46.17-.95.17-.49.5-.97.33-.48.83-.91.5-.43 1.18-.77-1.56-.84-2.45-2.24-.89-1.4-.89-3.28 0-1.52.61-2.75t1.7-2.1q1.09-.87 2.58-1.33 1.49-.46 3.25-.46 1.32 0 2.48.27t2.12.79Zm12.92 7.2h9.32q0-.96-.27-1.81-.27-.85-.81-1.49t-1.37-1.01q-.83-.37-1.93-.37-2.14 0-3.37 1.22t-1.57 3.46Zm12.6 2.98h-12.7q.12 1.58.56 2.73.44 1.15 1.16 1.9t1.71 1.12q.99.37 2.19.37t2.07-.28q.87-.28 1.52-.62.65-.34 1.14-.62.49-.28.95-.28.62 0 .92.46l1.42 1.8q-.82.96-1.84 1.61-1.02.65-2.13 1.04-1.11.39-2.26.55-1.15.16-2.23.16-2.14 0-3.98-.71-1.84-.71-3.2-2.1-1.36-1.39-2.14-3.44t-.78-4.75q0-2.1.68-3.95t1.95-3.22q1.27-1.37 3.1-2.17 1.83-.8 4.13-.8 1.94 0 3.58.62 1.64.62 2.82 1.81t1.85 2.92q.67 1.73.67 3.95 0 1.12-.24 1.51-.24.39-.92.39Zm19.52-4.88v9.2q.84 1.02 1.83 1.44.99.42 2.15.42 1.12 0 2.02-.42.9-.42 1.53-1.28.63-.86.97-2.17.34-1.31.34-3.09 0-1.8-.29-3.05-.29-1.25-.83-2.03-.54-.78-1.31-1.14-.77-.36-1.75-.36-1.54 0-2.62.65t-2.04 1.83Zm-.66-5.1.4 1.9q1.26-1.42 2.86-2.3 1.6-.88 3.76-.88 1.68 0 3.07.7t2.4 2.03q1.01 1.33 1.56 3.28.55 1.95.55 4.47 0 2.3-.62 4.26t-1.77 3.4q-1.15 1.44-2.78 2.25t-3.65.81q-1.72 0-2.94-.53t-2.18-1.47v8.4h-4.94v-27.22h3.02q.96 0 1.26.9Zm18.5-10.1h4.94v29.72h-4.94v-29.72Zm20.72 24.42v-3.46q-2.14.1-3.6.37t-2.34.69q-.88.42-1.26.98t-.38 1.22q0 1.3.77 1.86t2.01.56q1.52 0 2.63-.55 1.11-.55 2.17-1.67Zm-10.44-10.78-.88-1.58q3.54-3.24 8.52-3.24 1.8 0 3.22.59 1.42.59 2.4 1.64.98 1.05 1.49 2.51.51 1.46.51 3.2v12.96h-2.24q-.7 0-1.08-.21-.38-.21-.6-.85l-.44-1.48q-.78.7-1.52 1.23t-1.54.89q-.8.36-1.71.55-.91.19-2.01.19-1.3 0-2.4-.35-1.1-.35-1.9-1.05-.8-.7-1.24-1.74-.44-1.04-.44-2.42 0-.78.26-1.55t.85-1.47q.59-.7 1.53-1.32.94-.62 2.31-1.08 1.37-.46 3.19-.75 1.82-.29 4.16-.35v-1.2q0-2.06-.88-3.05-.88-.99-2.54-.99-1.2 0-1.99.28t-1.39.63q-.6.35-1.09.63-.49.28-1.09.28-.52 0-.88-.27t-.58-.63Zm35.9-1.9-1.3 1.8q-.22.28-.43.44-.21.16-.61.16-.38 0-.74-.23t-.86-.52q-.5-.29-1.19-.52-.69-.23-1.71-.23-1.3 0-2.28.47-.98.47-1.63 1.35-.65.88-.97 2.13-.32 1.25-.32 2.83 0 1.64.35 2.92t1.01 2.15q.66.87 1.6 1.32.94.45 2.12.45 1.18 0 1.91-.29t1.23-.64q.5-.35.87-.64.37-.29.83-.29.6 0 .9.46l1.42 1.8q-.82.96-1.78 1.61-.96.65-1.99 1.04t-2.12.55q-1.09.16-2.17.16-1.9 0-3.58-.71-1.68-.71-2.94-2.07-1.26-1.36-1.99-3.33t-.73-4.49q0-2.26.65-4.19.65-1.93 1.91-3.34 1.26-1.41 3.12-2.21t4.28-.8q2.3 0 4.03.74 1.73.74 3.11 2.12Zm7.18 5.36h9.32q0-.96-.27-1.81-.27-.85-.81-1.49t-1.37-1.01q-.83-.37-1.93-.37-2.14 0-3.37 1.22t-1.57 3.46Zm12.6 2.98h-12.7q.12 1.58.56 2.73.44 1.15 1.16 1.9t1.71 1.12q.99.37 2.19.37t2.07-.28q.87-.28 1.52-.62.65-.34 1.14-.62.49-.28.95-.28.62 0 .92.46l1.42 1.8q-.82.96-1.84 1.61-1.02.65-2.13 1.04-1.11.39-2.26.55-1.15.16-2.23.16-2.14 0-3.98-.71-1.84-.71-3.2-2.1-1.36-1.39-2.14-3.44t-.78-4.75q0-2.1.68-3.95t1.95-3.22q1.27-1.37 3.1-2.17 1.83-.8 4.13-.8 1.94 0 3.58.62 1.64.62 2.82 1.81t1.85 2.92q.67 1.73.67 3.95 0 1.12-.24 1.51-.24.39-.92.39Zm9.8-20.08v11.4q1.2-1.12 2.64-1.82 1.44-.7 3.38-.7 1.68 0 2.98.57t2.17 1.6q.87 1.03 1.32 2.46.45 1.43.45 3.15v13.06h-4.94v-13.06q0-1.88-.86-2.91-.86-1.03-2.62-1.03-1.28 0-2.4.58-1.12.58-2.12 1.58v14.84h-4.94v-29.72h4.94Zm26.7 8.88q2.28 0 4.15.74 1.87.74 3.2 2.1t2.05 3.32q.72 1.96.72 4.38 0 2.44-.72 4.4-.72 1.96-2.05 3.34-1.33 1.38-3.2 2.12-1.87.74-4.15.74-2.3 0-4.18-.74t-3.21-2.12q-1.33-1.38-2.06-3.34t-.73-4.4q0-2.42.73-4.38t2.06-3.32q1.33-1.36 3.21-2.1t4.18-.74Zm0 17.34q2.56 0 3.79-1.72t1.23-5.04q0-3.32-1.23-5.06-1.23-1.74-3.79-1.74-2.6 0-3.85 1.75t-1.25 5.05q0 3.3 1.25 5.03 1.25 1.73 3.85 1.73Zm13.96-26.22h4.94v29.72h-4.94v-29.72Zm22.76 23.64v-9.2q-.84-1.02-1.83-1.44-.99-.42-2.13-.42-1.12 0-2.02.42-.9.42-1.54 1.27-.64.85-.98 2.16-.34 1.31-.34 3.09 0 1.8.29 3.05.29 1.25.83 2.04t1.32 1.14q.78.35 1.74.35 1.54 0 2.62-.64t2.04-1.82Zm0-23.64h4.94v29.72h-3.02q-.98 0-1.24-.9l-.42-1.98q-1.24 1.42-2.85 2.3-1.61.88-3.75.88-1.68 0-3.08-.7-1.4-.7-2.41-2.03-1.01-1.33-1.56-3.29t-.55-4.48q0-2.28.62-4.24.62-1.96 1.78-3.4 1.16-1.44 2.78-2.25 1.62-.81 3.64-.81 1.72 0 2.94.54t2.18 1.46v-10.82Zm13.72 17.1h9.32q0-.96-.27-1.81-.27-.85-.81-1.49t-1.37-1.01q-.83-.37-1.93-.37-2.14 0-3.37 1.22t-1.57 3.46Zm12.6 2.98h-12.7q.12 1.58.56 2.73.44 1.15 1.16 1.9t1.71 1.12q.99.37 2.19.37t2.07-.28q.87-.28 1.52-.62.65-.34 1.14-.62.49-.28.95-.28.62 0 .92.46l1.42 1.8q-.82.96-1.84 1.61-1.02.65-2.13 1.04-1.11.39-2.26.55-1.15.16-2.23.16-2.14 0-3.98-.71-1.84-.71-3.2-2.1-1.36-1.39-2.14-3.44t-.78-4.75q0-2.1.68-3.95t1.95-3.22q1.27-1.37 3.1-2.17 1.83-.8 4.13-.8 1.94 0 3.58.62 1.64.62 2.82 1.81t1.85 2.92q.67 1.73.67 3.95 0 1.12-.24 1.51-.24.39-.92.39Zm9.22-9.64.3 2.32q.96-1.84 2.28-2.89 1.32-1.05 3.12-1.05 1.42 0 2.28.62l-.32 3.7q-.1.36-.29.51-.19.15-.51.15-.3 0-.89-.1-.59-.1-1.15-.1-.82 0-1.46.24t-1.15.69q-.51.45-.9 1.09-.39.64-.73 1.46v12.64h-4.94v-20.52h2.9q.76 0 1.06.27.3.27.4.97Z"/></svg>