<svg width="160" height="40" viewBox="0 0 160 40" fill="none" xmlns="http://www.w3.org/2000/svg">
<path d="M51.7498 14.6988C51.4734 13.1977 50.8704 11.7842 50.0035 10.5333C49.1367 9.28236 48.006 8.23158 46.6868 7.45602C44.4882 6.10502 41.9127 5.51709 39.3498 5.75477C39.0357 5.75477 38.7216 5.75477 38.4201 5.79229C36.121 6.16757 33.8973 6.95565 31.8746 8.119C31.7615 8.18155 31.6736 8.26911 31.6108 8.36918C31.548 8.46926 31.5103 8.59435 31.5103 8.71944C30.9449 11.9343 30.3921 15.1617 29.8268 18.3765C29.7891 18.5391 29.8016 18.7018 29.8645 18.8519C29.9147 19.002 30.0152 19.1396 30.1409 19.2397C31.6736 20.7283 33.1938 22.2419 34.6888 23.768C35.0029 24.0932 35.1788 24.1307 35.518 23.7805C36.5733 22.6922 37.6663 21.6414 38.7342 20.5656C38.8473 20.453 38.9729 20.353 39.086 20.2404C39.8021 19.5274 40.6313 18.7393 41.3348 17.9512C41.6489 17.626 41.8248 17.651 42.1012 17.9637C42.4906 18.4015 42.9178 18.7893 43.3324 19.2021C44.4631 20.328 44.4631 20.328 45.5561 19.1271C45.7571 18.9019 45.7571 18.7893 45.5561 18.5767C44.35 17.4008 43.1565 16.2124 41.9755 15.0116C41.762 14.7864 41.6238 14.8239 41.4353 15.0116C40.5056 15.9623 39.5634 16.9004 38.6337 17.8511C37.5784 18.8769 36.523 19.9026 35.4928 20.9409C35.1788 21.2536 35.0154 21.2411 34.7139 20.9409C33.9224 20.1153 33.0932 19.3272 32.2641 18.5391C32.1384 18.4391 32.0379 18.3015 31.9877 18.1514C31.9374 18.0012 31.9249 17.8261 31.9625 17.676C32.4148 15.1366 32.8671 12.5848 33.2943 10.0454C33.3068 9.8828 33.3696 9.73269 33.4701 9.60759C33.5707 9.4825 33.6963 9.38243 33.847 9.30737C35.5305 8.40671 37.3773 7.83129 39.2744 7.59362C39.8649 7.59362 40.4428 7.59362 41.0207 7.60613C42.9052 7.68118 44.7269 8.33166 46.2345 9.44497C47.7547 10.5583 48.8979 12.1094 49.5136 13.8732C49.9784 15.3118 50.1543 16.8379 50.0035 18.3515C49.8653 19.8651 49.413 21.3287 48.6718 22.6547C47.5788 24.9188 45.9204 26.8577 43.8726 28.3213C41.8499 29.7599 39.5006 30.673 37.0256 30.9858C35.4803 31.1359 33.9099 30.9858 32.44 30.4854C30.9072 29.9725 29.5127 29.1344 28.3443 28.0211C27.7664 31.261 27.2262 34.3382 26.6734 37.4155C26.6357 37.6407 26.5603 38.0409 26.3342 38.116H21.9621C23.0802 31.8989 24.1733 25.7945 25.2663 19.69C26.4095 13.3478 27.5402 6.99318 28.6961 0.651025C28.7715 0.225713 28.7212 0.0505842 28.1935 0.0505842C25.505 0.0630934 22.8164 0.0505842 20.1279 0.000547499C19.4997 -0.0119617 19.2861 0.188185 19.1856 0.776116C18.6454 3.92843 18.0549 7.08074 17.4896 10.2331C16.9745 13.1102 16.4719 15.9748 15.9568 18.8519C15.8689 19.2397 15.7809 19.6274 15.7181 20.0152C15.291 22.492 13.7959 23.7304 11.434 23.5553C11.2079 23.5553 10.9943 23.5303 10.7807 23.4552C10.5671 23.3802 10.3787 23.2676 10.2154 23.1175C10.052 22.9674 9.91385 22.7923 9.82591 22.5921C9.73796 22.392 9.67515 22.1793 9.66258 21.9541C9.57464 21.2787 9.59976 20.5906 9.76309 19.9152C10.5797 15.2492 11.4089 10.5833 12.2506 5.91739C12.3135 5.5296 12.2381 5.46706 11.8737 5.46706C10.6928 5.49207 9.49926 5.47957 8.3183 5.47957C6.77301 5.47957 5.24028 5.47957 3.69499 5.44204C3.21758 5.42953 3.11707 5.60466 3.04169 6.02997C2.28789 10.3081 1.47127 14.5737 0.730034 18.8519C0.403387 20.7157 -0.124274 22.5546 0.026486 24.4935C0.11443 26.2323 0.780288 27.896 1.92355 29.222C2.85324 30.2978 4.04676 31.0858 5.37848 31.5612V31.5987C5.66743 31.6988 5.96895 31.7738 6.27047 31.8364C6.28304 31.8364 6.2956 31.8364 6.30817 31.8489C6.64738 31.9115 6.98659 31.9615 7.3258 31.9865C9.38619 32.1992 11.4591 32.0866 13.4818 31.6613C14.0472 31.5487 14.1226 31.7113 14.0095 32.1992C13.8587 32.9247 13.7331 33.6627 13.6075 34.4008C13.5572 34.5509 13.5447 34.701 13.5572 34.8636C13.5698 35.0137 13.62 35.1638 13.708 35.3014C13.7834 35.439 13.8964 35.5516 14.0221 35.6392C14.1477 35.7267 14.2985 35.7893 14.4492 35.8143C15.0774 35.9394 15.5925 35.5266 15.7432 34.7761C15.8563 34.1631 15.9694 33.5502 16.0825 32.9497C16.3212 31.6362 16.5724 30.3103 16.8237 28.9218C13.3562 29.8599 9.93898 30.5605 6.4338 29.8975C3.2804 28.9092 1.52153 25.9821 2.112 22.442C2.94119 17.5634 3.80806 12.6974 4.6498 7.81878C4.71262 7.45602 4.86338 7.35594 5.22772 7.36845C6.24535 7.39347 7.26298 7.36845 8.29318 7.36845C8.67008 7.40598 9.04698 7.40598 9.41131 7.39347C9.93898 7.33092 9.98923 7.5686 9.91385 8.00642C9.33593 11.1212 8.78315 14.2485 8.24292 17.3633C7.89115 18.7893 7.69014 20.2529 7.67757 21.729C7.65244 22.392 7.81577 23.055 8.15498 23.6429C8.48163 24.2183 8.9716 24.7062 9.56208 25.0189C10.7179 25.5443 12.0119 25.6569 13.2431 25.3566C14.4492 25.0564 15.5171 24.3684 16.2835 23.4052C16.2835 23.4052 16.2835 23.4177 16.2835 23.4302C16.9368 22.6296 17.3639 21.6789 17.5147 20.6657C18.08 17.701 18.6077 14.7238 19.1479 11.7467C19.7007 8.66941 20.2535 5.60466 20.8063 2.5274C20.8817 2.1146 21.0073 1.92696 21.5098 1.93947C22.9923 1.977 24.4748 1.96449 25.9573 1.93947C26.3342 1.93947 26.4724 1.98951 26.397 2.40231C25.6683 6.39274 24.9522 10.3832 24.2361 14.3736C23.432 18.8269 22.6028 23.2676 21.7988 27.7209C21.0952 31.6112 20.4419 35.5141 19.7258 39.417C19.6379 39.9173 19.751 39.9924 20.2284 39.9924C22.4646 39.9674 24.6884 39.9924 26.9246 39.9924V39.9674C27.1759 39.9674 27.4272 40.0049 27.691 39.9924C28.0805 40.0424 28.1935 39.8423 28.2438 39.5045C28.3443 38.829 28.4825 38.1535 28.5956 37.4905C28.8845 35.5891 29.3619 33.7253 29.5378 31.8114C29.5881 31.286 29.8519 31.5362 30.078 31.6488C32.2264 32.7245 34.6511 33.1624 37.0381 32.9122C37.0381 32.9122 37.0381 32.8997 37.0381 32.8872C40.2292 32.5619 43.2444 31.311 45.7069 29.272C47.5537 27.846 49.0613 26.0321 50.1543 23.9806C51.7498 21.1786 52.2901 17.8887 51.687 14.7238L51.7498 14.6988Z" fill="url(#paint0_linear_1296_625)"/>
<path d="M48.8738 15.4866C48.5723 15.8118 48.3712 16.0495 48.1577 16.2746C47.6886 16.775 47.2154 16.7875 46.738 16.3122C45.2932 14.8736 43.8359 13.435 42.4037 11.984C42.1021 11.6838 41.9514 11.6587 41.6373 11.984C39.7528 13.8979 37.8306 15.7743 35.9335 17.6882C35.6697 17.9634 35.4938 18.0509 35.2048 17.7132C34.9033 17.3504 34.2877 17.0377 34.2752 16.6749C34.25 16.2496 34.8656 15.9369 35.2174 15.5866C37.3406 13.4476 39.489 11.321 41.6122 9.16942C41.9137 8.8692 42.0644 8.84418 42.3911 9.16942C44.4138 11.2084 46.4616 13.2349 48.4969 15.2614C48.61 15.3489 48.7356 15.4365 48.8738 15.4991V15.4866Z" fill="white"/>
<path d="M29.2379 21.3162C29.7906 21.9167 30.2429 22.4295 30.7078 22.9049C31.939 24.1683 33.1827 25.4192 34.4014 26.7077C34.7155 27.0454 34.8788 27.0079 35.1803 26.7077C37.0397 24.7813 38.9242 22.8799 40.771 20.9409C41.1102 20.5907 41.261 20.6157 41.5751 20.9535C42.5801 22.0167 42.5927 22.0042 41.5876 23.03C39.4519 25.2191 37.3035 27.3957 35.1803 29.6098C34.8285 29.9726 34.6778 29.935 34.3511 29.5973C32.63 27.796 30.8962 26.0197 29.1373 24.2559C29.0243 24.1558 28.9363 24.0182 28.8861 23.8681C28.8358 23.718 28.8358 23.5554 28.8735 23.4053C28.9866 22.7798 29.0997 22.1543 29.2379 21.3412V21.3162Z" fill="white"/>
<path d="M97.9365 16.1122C101.153 13.3602 103.942 13.5979 106.379 16.8503C106.919 15.9496 107.723 15.2366 108.678 14.7863C109.633 14.3359 110.701 14.1858 111.744 14.3359C114.583 14.6111 116.493 16.6126 116.58 19.6023C116.668 22.7421 116.618 25.8944 116.618 29.0342C116.618 29.5221 116.392 29.7597 115.902 29.7597C114.834 29.7597 113.766 29.7597 112.698 29.7347C112.12 29.7347 112.045 29.3344 112.058 28.8841C112.07 27.0578 112.095 25.2439 112.095 23.4176C112.158 22.3543 112.12 21.291 111.97 20.2403C111.706 18.9893 111.103 18.4765 109.922 18.4765C109.382 18.4389 108.841 18.5891 108.414 18.9268C107.987 19.252 107.698 19.7274 107.598 20.2653C107.497 20.7531 107.434 21.2535 107.447 21.7539C107.447 24.1431 107.434 26.5324 107.447 28.9091C107.447 29.5221 107.208 29.7723 106.593 29.7472C105.65 29.7097 104.721 29.7222 103.778 29.7222C103.062 29.7222 102.899 29.5721 102.899 28.8466C102.899 26.4573 102.924 24.0681 102.937 21.6913C102.962 21.1034 102.886 20.5155 102.723 19.9526C102.61 19.5272 102.371 19.152 102.02 18.8768C101.68 18.6016 101.253 18.4515 100.813 18.4389C100.361 18.3764 99.8963 18.464 99.4818 18.6766C99.0672 18.8893 98.7405 19.227 98.5269 19.6273C98.2882 20.0902 98.1626 20.603 98.1626 21.1284C98.15 23.6428 98.1375 26.1571 98.1375 28.684C98.1375 29.5846 97.9993 29.7222 97.0696 29.7222C96.2153 29.7222 95.3735 29.7222 94.5192 29.7222C93.8157 29.7097 93.577 29.4595 93.577 28.7715C93.5895 24.3933 93.6147 20.0026 93.6398 15.6244C93.6398 15.0239 93.8911 14.7487 94.5067 14.7612C95.3107 14.7863 96.1148 14.7612 96.9314 14.7612C97.836 14.7612 97.9113 14.8363 97.9239 15.7119C97.9239 15.837 97.9239 15.9496 97.9239 16.1122H97.9365ZM123.277 15.9121C126.593 12.8473 133.629 14.1358 134.772 20.4404C135.312 23.3926 134.785 26.1571 132.511 28.3462C130.614 30.1725 128.315 30.6104 125.802 30.11C124.935 29.8598 124.156 29.3845 123.553 28.734C123.415 28.6089 123.327 28.4213 123.113 28.3837C122.963 30.085 123.013 29.7347 121.493 29.7723C120.953 29.7848 120.4 29.7723 119.86 29.7723C118.842 29.7723 118.716 29.6472 118.716 28.6589C118.716 24.4058 118.729 20.1527 118.741 15.8996V10.9459C118.741 10.0578 118.98 9.83263 119.86 9.83263C120.651 9.83263 121.43 9.83263 122.209 9.83263C123.113 9.83263 123.289 10.0078 123.289 10.8834C123.289 12.5346 123.289 14.1858 123.289 15.9121H123.277ZM126.744 18.539C126.016 18.539 125.299 18.7392 124.684 19.152C124.068 19.5523 123.591 20.1277 123.314 20.8032C123.038 21.4787 122.963 22.2167 123.101 22.9297C123.239 23.6428 123.591 24.3057 124.106 24.8186C124.621 25.3315 125.287 25.6818 126.003 25.8319C126.719 25.9695 127.46 25.8944 128.139 25.6192C128.817 25.344 129.395 24.8687 129.797 24.2557C130.199 23.6428 130.413 22.9422 130.413 22.2042C130.413 21.241 130.023 20.3153 129.332 19.6273C128.641 18.9393 127.712 18.5515 126.744 18.5515V18.539ZM159.999 21.8539C160.012 22.9297 159.811 23.993 159.396 24.9812C158.982 25.9695 158.366 26.8576 157.587 27.6082C156.808 28.3462 155.891 28.9216 154.886 29.2969C153.881 29.6722 152.801 29.8223 151.733 29.7723C146.959 29.6347 143.642 26.2197 143.78 21.6288C143.931 16.8503 147.411 13.6729 152.336 13.8231C153.366 13.8481 154.396 14.0732 155.338 14.486C156.281 14.8988 157.135 15.4993 157.851 16.2498C158.567 17.0004 159.12 17.876 159.484 18.8392C159.849 19.8024 160.025 20.8282 159.987 21.8665L159.999 21.8539ZM155.464 21.7664C155.414 21.0659 155.163 20.4029 154.748 19.84C154.333 19.2771 153.743 18.8643 153.077 18.6266C152.411 18.3889 151.695 18.3639 151.017 18.5265C150.338 18.6891 149.723 19.0644 149.245 19.5773C148.768 20.0902 148.454 20.7281 148.341 21.4286C148.228 22.1166 148.316 22.8297 148.604 23.4676C148.893 24.1056 149.358 24.6435 149.949 25.0188C150.539 25.394 151.23 25.5942 151.934 25.5817C152.411 25.5692 152.889 25.4566 153.328 25.2439C153.768 25.0438 154.17 24.7561 154.497 24.4058C154.823 24.0556 155.075 23.6303 155.238 23.1799C155.401 22.7296 155.477 22.2417 155.452 21.7664H155.464ZM70.6614 20.1277C70.4227 20.1277 70.184 20.1152 69.9453 20.1277C69.5307 20.2152 69.1035 20.1652 68.7266 20.0026C68.3497 19.8275 68.0231 19.5398 67.8221 19.1645C67.018 17.9136 65.5984 17.776 64.2415 18.1262C63.5631 18.2888 62.9601 18.6641 62.5078 19.1895C62.0555 19.7149 61.7791 20.3654 61.7163 21.0534C61.4022 22.9548 62.156 24.5309 63.6134 25.2439C64.3797 25.6192 65.2717 25.7068 66.1009 25.4816C66.9301 25.2564 67.6462 24.7436 68.1362 24.0431C68.2492 23.8804 68.4 23.7428 68.5759 23.6553C68.7518 23.5677 68.9654 23.5302 69.1538 23.5552C70.2594 23.6052 71.3775 23.6052 72.4831 23.5927C72.9354 23.5927 73.0233 23.6928 72.8851 24.1556C72.4077 25.7068 71.4655 27.0828 70.1714 28.0835C68.89 29.0843 67.3321 29.6722 65.6989 29.7723C64.2415 29.9099 62.7842 29.6347 61.4776 28.9717C60.171 28.3087 59.0906 27.2954 58.3368 26.0445C57.5453 24.8561 57.1055 23.4801 57.0553 22.0666C57.005 20.6531 57.3442 19.2395 58.0352 18.0011C60.2966 13.5729 66.3647 12.422 70.2971 15.6244C71.5534 16.6376 72.4705 18.0261 72.8851 19.5773C73.0233 20.0776 72.8977 20.1777 72.4328 20.1527C71.8424 20.1152 71.2519 20.1527 70.674 20.1527L70.6614 20.1277ZM87.2199 28.2837C86.843 28.8466 86.3279 29.3219 85.7374 29.6472C85.147 29.9849 84.4685 30.1725 83.7901 30.1976C78.6266 30.8105 74.8576 27.3079 75.0083 22.1292C75.0837 19.3146 76.0637 17.0004 78.4633 15.4493C79.4432 14.8238 80.5362 14.436 81.692 14.2859C82.8353 14.1483 84.0037 14.2609 85.1093 14.6236C85.951 14.8738 86.6671 15.4117 87.1445 16.1373C87.2073 16.0872 87.2576 16.0622 87.2576 16.0372C87.2827 14.6737 87.3958 14.8238 88.5768 14.8238C89.2677 14.8238 89.9713 14.8238 90.6748 14.8238C91.4412 14.8238 91.5417 14.9239 91.5417 15.6994C91.5417 19.7774 91.5417 23.8554 91.5166 27.9209C91.5166 28.2837 91.5166 28.6589 91.5166 29.0342C91.5292 29.1343 91.5166 29.2469 91.4915 29.3469C91.4538 29.447 91.4035 29.5346 91.3281 29.6096C91.2528 29.6847 91.1648 29.7347 91.0643 29.7597C90.9638 29.7848 90.8633 29.7973 90.7502 29.7723C89.8959 29.7472 89.0542 29.7723 88.1999 29.7723C87.3456 29.7723 87.2325 29.6472 87.2199 28.784C87.2199 28.684 87.2199 28.5714 87.2199 28.2837ZM86.9812 22.2542C86.9938 21.7539 86.9058 21.266 86.7299 20.8032C86.5415 20.3403 86.2777 19.9275 85.9259 19.5773C85.5741 19.227 85.1595 18.9518 84.6947 18.7642C84.2298 18.5765 83.7399 18.489 83.2373 18.5015C82.7348 18.5015 82.2448 18.6141 81.78 18.8017C81.3151 19.0019 80.9005 19.2771 80.5613 19.6398C80.2096 19.9901 79.9332 20.4154 79.7573 20.8782C79.5688 21.3411 79.4809 21.8289 79.4809 22.3293C79.4809 22.8297 79.594 23.3175 79.7824 23.7804C79.9709 24.2432 80.2598 24.656 80.6241 24.9937C80.9759 25.344 81.4031 25.6192 81.8679 25.7943C82.3328 25.982 82.8227 26.0695 83.3253 26.0695C83.8278 26.0695 84.3178 25.982 84.7701 25.7818C85.2223 25.5942 85.6369 25.3065 85.9887 24.9437C86.3279 24.5809 86.5917 24.1556 86.7676 23.6928C86.9435 23.23 87.0063 22.7296 86.9812 22.2417V22.2542ZM86.3154 13.01C86.1897 13.01 86.0515 13.01 85.9259 13.01C85.4862 13.1351 85.0088 13.085 84.6067 12.8849C84.1921 12.6847 83.8781 12.3345 83.7147 11.9092C83.4886 11.4338 83.1368 11.3587 82.8856 11.8966C82.7097 12.322 82.3956 12.6597 81.9936 12.8599C81.5915 13.06 81.1141 13.11 80.6744 12.9975C80.0714 12.9474 79.4558 12.9474 78.8527 12.9975C78.7396 13.0225 78.6391 12.9975 78.5386 12.9474C78.4381 12.8974 78.3627 12.8223 78.3125 12.7222C78.212 12.4971 78.3251 12.347 78.4633 12.1969C79.4558 11.1086 80.4483 10.0078 81.4408 8.91946C81.5287 8.80688 81.6418 8.71931 81.7674 8.65677C81.8931 8.59422 82.0312 8.55669 82.182 8.55669C82.9484 8.55669 83.7022 8.55669 84.4685 8.55669C84.657 8.5692 84.8329 8.63175 84.9962 8.71931C85.1595 8.80688 85.2977 8.93197 85.3982 9.09459C86.2777 10.1078 87.1697 11.1211 88.0491 12.1343C88.2124 12.322 88.3757 12.4971 88.2627 12.7723C88.137 13.035 87.8858 13.01 87.6471 13.01H86.3405H86.3154ZM141.607 22.3043V28.8716C141.607 29.6347 141.481 29.7723 140.69 29.7723C139.798 29.7723 138.906 29.7723 138.014 29.7723C137.222 29.7723 137.096 29.6472 137.096 28.8841C137.109 24.4559 137.134 20.0401 137.134 15.6119C137.134 15.0239 137.348 14.7988 137.938 14.8113C138.855 14.8488 139.772 14.8113 140.69 14.8113C141.569 14.8113 141.632 14.8738 141.632 15.7245V22.3043H141.607ZM141.732 11.2337C141.732 11.6965 141.607 12.1468 141.343 12.5346C141.092 12.9224 140.727 13.2226 140.3 13.3977C139.873 13.5729 139.408 13.6229 138.943 13.5353C138.491 13.4478 138.064 13.2226 137.737 12.9099C137.411 12.5846 137.184 12.1718 137.084 11.7215C136.996 11.2712 137.034 10.7958 137.21 10.3705C137.385 9.94521 137.687 9.58245 138.064 9.31975C138.453 9.05706 138.906 8.91946 139.358 8.91946C139.986 8.91946 140.576 9.15713 141.016 9.59496C141.456 10.0328 141.707 10.6207 141.72 11.2462L141.732 11.2337Z" fill="white"/>
<defs>
<linearGradient id="paint0_linear_1296_625" x1="51.5637" y1="20.0275" x2="0.0539813" y2="20.0275" gradientUnits="userSpaceOnUse">
<stop stop-color="#00ADF8"/>
<stop offset="1" stop-color="#41AB38"/>
</linearGradient>
</defs>
</svg>
