<svg width="132" height="32" viewBox="0 0 132 32" fill="none" xmlns="http://www.w3.org/2000/svg">
<mask id="mask0_1296_790" style="mask-type:luminance" maskUnits="userSpaceOnUse" x="0" y="0" width="132" height="32">
<path d="M132 0H0V32H132V0Z" fill="white"/>
</mask>
<g mask="url(#mask0_1296_790)">
<path d="M16.8 15.422C17.205 13.126 17.6105 10.8299 18.0165 8.53355C18.4665 6.01255 18.9365 3.49405 19.3665 0.970055C19.447 0.495555 19.6095 0.340548 20.1135 0.350548C22.254 0.392548 24.396 0.400554 26.5375 0.388054C26.9565 0.388054 26.995 0.530052 26.934 0.870552C26.0207 5.94355 25.1115 11.0174 24.2065 16.092C23.334 20.9725 22.4625 25.8535 21.574 30.8245H25.553C25.553 31.3155 25.5513 31.8066 25.548 32.2976C23.7715 32.2976 21.994 32.2875 20.217 32.3035C19.8415 32.307 19.7485 32.2431 19.817 31.8451C20.382 28.7321 20.9105 25.6126 21.467 22.4981C22.103 18.9386 22.7595 15.3831 23.4025 11.8261C23.979 8.63756 24.5445 5.44705 25.1275 2.26005C25.188 1.93005 25.0775 1.88205 24.7775 1.88555C23.5985 1.90005 22.418 1.91255 21.2375 1.88055C20.8445 1.86955 20.7375 2.02005 20.6795 2.35305C20.2462 4.81205 19.8073 7.26972 19.363 9.72605C18.9345 12.1021 18.513 14.4796 18.063 16.851C17.9404 17.6634 17.6024 18.4282 17.084 19.0656C16.9874 18.8759 16.949 18.662 16.9735 18.4506C16.9735 17.5881 16.979 16.7256 16.9705 15.8626C16.9725 15.7036 17.0675 15.489 16.8 15.422Z" fill="#E6EDF3"/>
<path d="M34.226 25.0397C36.2175 24.7972 38.1164 24.059 39.7487 22.8927C41.3811 21.7264 42.6948 20.1692 43.5695 18.3637C44.1525 17.3002 44.5123 16.129 44.6268 14.9216C44.7413 13.7143 44.6082 12.4963 44.2355 11.3422C43.7377 9.92577 42.8269 8.69102 41.6207 7.79721C40.4144 6.9034 38.968 6.39155 37.468 6.32768C36.955 6.30318 36.441 6.31567 35.927 6.31167V4.85418C38.0348 4.61023 40.1634 5.08275 41.97 6.19568C43.0139 6.81874 43.9131 7.65714 44.6076 8.65501C45.3021 9.65288 45.7759 10.7873 45.9975 11.9827C46.4819 14.5154 46.0513 17.1378 44.7825 19.3827C43.9146 21.0275 42.7081 22.4699 41.2425 23.6147C39.2279 25.2906 36.7484 26.3092 34.1375 26.5337C34.1835 26.0357 34.0245 25.5272 34.226 25.0397Z" fill="#E6EDF3"/>
<path d="M9.10849 25.8316C7.74542 25.5367 6.5171 24.8019 5.61271 23.7403C4.70831 22.6787 4.17804 21.3492 4.10352 19.9566C3.98702 18.4066 4.41149 16.9371 4.66849 15.4451C5.25749 12.0241 5.9005 8.61261 6.504 5.19511C6.563 4.86111 6.64701 4.7161 7.02451 4.7266C8.25101 4.7591 9.47802 4.75061 10.705 4.75761V6.23961C9.89202 6.23961 9.0785 6.25511 8.266 6.23961C7.98 6.23361 7.8605 6.31011 7.81 6.60411C7.141 10.5041 6.44201 14.3956 5.78602 18.2961C5.30702 21.1461 6.73102 23.5021 9.26902 24.2801C9.29802 24.2891 9.319 24.3186 9.3465 24.3391C9.122 24.4271 9.10751 24.6146 9.11051 24.8176C9.11301 25.1546 9.10899 25.4931 9.10849 25.8316Z" fill="#E6EDF3"/>
<path d="M35.924 4.77637V6.25136C34.3919 6.43318 32.9074 6.90006 31.547 7.62787C31.4288 7.67893 31.3263 7.76036 31.2498 7.86391C31.1733 7.96745 31.1256 8.0894 31.1115 8.21736C30.775 10.2544 30.4115 12.2879 30.051 14.3209C30.022 14.4477 30.029 14.5802 30.0711 14.7033C30.1132 14.8264 30.1889 14.9353 30.2895 15.0179C30.9505 15.6424 31.6045 16.2789 32.2365 16.9339C32.473 17.1784 32.6065 17.1944 32.8565 16.9409C33.7565 16.0189 34.688 15.1234 35.6065 14.2184C35.867 14.3284 35.8065 14.5614 35.8285 14.7684C35.876 15.1849 35.696 15.6224 35.936 16.0219C35.8595 16.2974 35.615 16.4354 35.4325 16.6219C34.5825 17.4829 33.7105 18.3219 32.875 19.1959C32.608 19.4749 32.471 19.4459 32.2175 19.1854C31.0238 17.9657 29.8167 16.7594 28.596 15.5664C28.4953 15.4838 28.4191 15.3752 28.3756 15.2525C28.332 15.1298 28.3228 14.9974 28.349 14.8699C28.799 12.2974 29.2375 9.72287 29.685 7.14987C29.6872 7.05201 29.7149 6.95641 29.7654 6.87256C29.8159 6.78871 29.8875 6.71952 29.973 6.67186C31.5845 5.74724 33.3488 5.11898 35.182 4.81686C35.4285 4.78686 35.677 4.78887 35.924 4.77637Z" fill="#E6EDF3"/>
<path d="M10.703 6.24079V4.75879C11.649 4.75879 12.595 4.76379 13.54 4.74829C13.8265 4.74379 13.89 4.79829 13.837 5.10479C13.164 8.83145 12.5027 12.5603 11.853 16.2913C11.7265 16.8238 11.6996 17.375 11.7735 17.9173C11.7822 18.0924 11.8252 18.2641 11.9003 18.4226C11.9754 18.581 12.0809 18.7231 12.211 18.8408C12.341 18.9584 12.4929 19.0492 12.6581 19.1081C12.8232 19.167 12.9984 19.1927 13.1735 19.1838C15.056 19.3268 16.251 18.3338 16.587 16.3568C16.647 16.0028 16.7335 15.6533 16.807 15.3023C17.0745 15.3703 16.98 15.5903 16.9815 15.7523C16.99 16.6278 16.9865 17.5023 16.9845 18.3793C16.9599 18.5938 16.9983 18.8108 17.095 19.0038C16.4801 19.8026 15.613 20.3699 14.6348 20.6135C13.6566 20.8571 12.6247 20.7625 11.707 20.3453C11.2377 20.0891 10.8489 19.7075 10.584 19.243C10.3191 18.7786 10.1886 18.2496 10.207 17.7153C10.2263 16.5384 10.3788 15.3674 10.6615 14.2248C11.0949 11.7284 11.5391 9.23413 11.9945 6.74179C12.0575 6.39529 12.02 6.20829 11.5975 6.25479C11.299 6.26986 10.9998 6.265 10.702 6.24028L10.703 6.24079Z" fill="#E6EDF3"/>
<path d="M34.2255 24.8191C34.0255 25.3126 34.183 25.8281 34.1345 26.3286C32.2284 26.5296 30.3046 26.1807 28.5905 25.3231C28.4125 25.2336 28.1965 25.0301 28.1585 25.4506C28.019 26.9831 27.643 28.477 27.4085 29.994C27.325 30.533 27.216 31.0676 27.133 31.6081C27.092 31.8736 27.004 32.0305 26.691 31.9945C26.3115 32.0019 25.9318 31.9867 25.554 31.9491C25.554 31.4491 25.5555 30.9506 25.5585 30.4536C25.878 30.4241 25.819 30.1535 25.853 29.963C26.294 27.504 26.7275 25.0451 27.1855 22.4561C28.1124 23.3443 29.2241 24.0167 30.4411 24.4252C31.6582 24.8337 32.9504 24.9682 34.2255 24.8191Z" fill="#E6EDF3"/>
<path d="M9.08852 25.7921C9.08852 25.4541 9.09302 25.115 9.08852 24.778C9.08552 24.575 9.09998 24.3875 9.32448 24.2995C12.331 25.0495 15.2445 24.4471 18.2125 23.6436C18.009 24.7571 17.817 25.8105 17.624 26.8645C17.5345 27.353 17.4445 27.8415 17.35 28.329C17.234 28.929 16.8235 29.258 16.32 29.162C16.1973 29.1398 16.0807 29.0915 15.9782 29.0206C15.8756 28.9496 15.7894 28.8575 15.7253 28.7505C15.6612 28.6436 15.6207 28.5241 15.6065 28.4002C15.5923 28.2763 15.6048 28.1508 15.643 28.032C15.747 27.445 15.843 26.856 15.9675 26.2735C16.0525 25.8805 15.9945 25.7555 15.543 25.8425C13.9336 26.1869 12.2801 26.276 10.643 26.1065C10.1142 26.0655 9.59229 25.9601 9.08901 25.7925L9.08852 25.7921Z" fill="#E6EDF3"/>
<path d="M35.9365 15.8971C35.6965 15.4971 35.876 15.0606 35.8285 14.6431C35.8045 14.4351 35.869 14.2006 35.607 14.0931C36.352 13.3381 37.1005 12.5871 37.839 11.8266C37.998 11.6631 38.0995 11.6411 38.274 11.8176C39.2163 12.7753 40.1663 13.7253 41.124 14.6676C41.291 14.8321 41.296 14.9281 41.1315 15.1046C40.256 16.0581 40.262 16.0636 39.3585 15.1611C39.03 14.8331 38.6845 14.5196 38.378 14.1721C38.1545 13.9186 38.02 13.8986 37.7655 14.1581C37.2071 14.7894 36.5951 15.3712 35.9365 15.8971Z" fill="#E6EDF3"/>
<path d="M43.5055 12.5619C43.267 12.8249 43.1055 13.0119 42.933 13.1919C42.3695 13.7919 42.369 13.7919 41.8045 13.2254C40.6545 12.0754 39.4935 10.9289 38.3545 9.76494C38.1185 9.52444 37.9965 9.50195 37.744 9.75945C36.244 11.2894 34.7145 12.7944 33.206 14.3184C32.993 14.5339 32.856 14.6084 32.629 14.3349C32.3875 14.0409 31.9025 13.7954 31.8855 13.5079C31.8645 13.1684 32.3595 12.9224 32.6355 12.6424C34.3305 10.9299 36.0385 9.22894 37.728 7.51044C37.9665 7.26844 38.0925 7.24994 38.343 7.50194C39.953 9.13544 41.58 10.7519 43.205 12.3709C43.2979 12.4452 43.3985 12.5094 43.505 12.5624L43.5055 12.5619Z" fill="#E6EDF3"/>
<path d="M27.874 17.2255C28.3155 17.7085 28.6695 18.1105 29.041 18.499C30.0175 19.513 31.012 20.509 31.9765 21.5345C32.2265 21.8005 32.354 21.7775 32.5945 21.5265C34.0725 19.983 35.5765 18.4655 37.049 16.917C37.3175 16.6345 37.4425 16.6615 37.691 16.927C38.4865 17.777 38.4975 17.765 37.703 18.5825C36 20.3325 34.29 22.0755 32.603 23.8405C32.328 24.1285 32.199 24.0965 31.945 23.83C30.5747 22.3947 29.1913 20.9717 27.795 19.5611C27.7009 19.4771 27.6314 19.3692 27.594 19.2488C27.5566 19.1284 27.5526 19 27.5825 18.8775C27.676 18.3775 27.76 17.874 27.874 17.2255Z" fill="#E6EDF3"/>
<path d="M82.5455 13.0632C85.1075 10.8592 87.3215 11.0577 89.27 13.6497C89.7047 12.9311 90.3422 12.357 91.1021 11.9996C91.8621 11.6421 92.7107 11.5173 93.5415 11.6407C95.8025 11.8657 97.3174 13.4597 97.3864 15.8492C97.4594 18.3627 97.4115 20.8792 97.42 23.3942C97.42 23.7812 97.2445 23.9742 96.8545 23.9707C96.0045 23.9642 95.1545 23.9612 94.3045 23.9522C93.846 23.9477 93.788 23.6282 93.7905 23.2717C93.801 21.8142 93.8215 20.3597 93.8215 18.9042C93.8755 18.056 93.8406 17.2046 93.7175 16.3637C93.5055 15.3637 93.0295 14.9582 92.0915 14.9497C91.6623 14.916 91.2358 15.0432 90.8952 15.3066C90.5546 15.57 90.3243 15.9508 90.249 16.3747C90.164 16.7645 90.1238 17.1627 90.129 17.5617C90.129 19.4697 90.1155 21.3777 90.1245 23.2857C90.1245 23.7767 89.931 23.9762 89.441 23.9592C88.6955 23.9337 87.9495 23.9437 87.2025 23.9367C86.6295 23.9312 86.5025 23.8122 86.5025 23.2337C86.51 21.3262 86.5265 19.4187 86.5335 17.5112C86.5497 17.043 86.4923 16.5751 86.3635 16.1247C86.275 15.7858 86.0789 15.4848 85.8049 15.2667C85.5309 15.0487 85.1935 14.9253 84.8435 14.9152C84.4795 14.8685 84.11 14.9345 83.7848 15.1044C83.4595 15.2743 83.1942 15.5398 83.0245 15.8652C82.8351 16.2368 82.7369 16.6481 82.738 17.0652C82.728 19.0782 82.7218 21.0902 82.7195 23.1012C82.7195 23.8247 82.606 23.9342 81.8725 23.9342C81.1955 23.9342 80.519 23.9437 79.842 23.9317C79.2855 23.9217 79.092 23.7237 79.092 23.1702C79.105 19.6672 79.1265 16.1642 79.1385 12.6607C79.1385 12.1842 79.3384 11.9607 79.8289 11.9747C80.4704 11.9922 81.113 11.9787 81.755 11.9792C82.4715 11.9792 82.536 12.0402 82.545 12.7392C82.547 12.8367 82.5455 12.9327 82.5455 13.0632Z" fill="#E6EDF3"/>
<path d="M102.715 12.8986C105.355 10.4485 110.953 11.4796 111.865 16.5151C112.293 18.8796 111.877 21.0806 110.061 22.8321C108.552 24.2896 106.721 24.643 104.718 24.241C104.032 24.0421 103.412 23.661 102.924 23.1381C102.814 23.0381 102.744 22.8846 102.574 22.8575C102.45 24.2146 102.492 23.9346 101.28 23.9666C100.847 23.9781 100.412 23.9666 99.9795 23.9666C99.172 23.9666 99.072 23.869 99.073 23.0815C99.078 19.6815 99.0835 16.2816 99.0895 12.8816V8.92505C99.0895 8.21705 99.276 8.03606 99.9835 8.03356C100.608 8.03356 101.234 8.03056 101.858 8.03356C102.576 8.03706 102.717 8.17606 102.717 8.87806C102.716 10.1986 102.715 11.5171 102.715 12.8986ZM105.478 14.9986C104.897 14.9943 104.327 15.1632 103.841 15.4837C103.355 15.8043 102.976 16.262 102.751 16.7987C102.526 17.3355 102.466 17.9269 102.578 18.4979C102.69 19.069 102.97 19.5937 103.381 20.0055C103.792 20.4173 104.316 20.6976 104.887 20.8106C105.458 20.9236 106.05 20.8644 106.587 20.6403C107.124 20.4163 107.582 20.0376 107.903 19.5524C108.225 19.0672 108.394 18.4975 108.391 17.9155C108.388 17.143 108.08 16.4029 107.534 15.8562C106.988 15.3095 106.249 15.0004 105.476 14.9961L105.478 14.9986Z" fill="#E6EDF3"/>
<path d="M131.952 17.6475C131.966 18.504 131.804 19.3541 131.474 20.1448C131.145 20.9355 130.656 21.6498 130.038 22.2429C129.42 22.8361 128.687 23.2953 127.883 23.592C127.08 23.8887 126.224 24.0163 125.369 23.967C121.569 23.8535 118.926 21.1296 119.038 17.4596C119.154 13.6446 121.927 11.1046 125.849 11.2191C126.673 11.2357 127.486 11.4157 128.24 11.7487C128.994 12.0817 129.675 12.5611 130.242 13.159C130.81 13.7569 131.254 14.4615 131.547 15.232C131.84 16.0024 131.978 16.8235 131.952 17.6475ZM128.341 17.576C128.305 17.018 128.105 16.483 127.767 16.0373C127.429 15.5916 126.968 15.2549 126.44 15.0688C125.913 14.8827 125.342 14.8554 124.8 14.9904C124.257 15.1253 123.766 15.4165 123.387 15.8278C123.008 16.2392 122.758 16.7527 122.668 17.3048C122.578 17.8568 122.652 18.4231 122.881 18.9335C123.11 19.4439 123.483 19.8759 123.955 20.1762C124.427 20.4764 124.976 20.6316 125.536 20.6226C125.92 20.6086 126.299 20.5185 126.648 20.3574C126.998 20.1964 127.313 19.9677 127.574 19.6845C127.834 19.4013 128.037 19.0692 128.168 18.7074C128.3 18.3456 128.359 17.9607 128.341 17.576Z" fill="#E6EDF3"/>
<path d="M60.838 16.2614C60.6475 16.2614 60.4555 16.2469 60.2655 16.2614C59.9382 16.3319 59.5968 16.2951 59.2921 16.1564C58.9873 16.0177 58.7353 15.7845 58.5735 15.4914C57.933 14.4914 56.8035 14.3819 55.7235 14.6584C55.1873 14.7926 54.7061 15.0901 54.3463 15.5097C53.9866 15.9294 53.7662 16.4505 53.7155 17.0009C53.4685 18.5194 54.0625 19.7824 55.222 20.3474C55.8365 20.6462 56.5381 20.7132 57.198 20.5361C57.8579 20.359 58.4318 19.9497 58.814 19.3834C58.9009 19.249 59.0233 19.1414 59.1677 19.0724C59.3122 19.0035 59.4729 18.976 59.632 18.9929C60.517 19.0289 61.3995 19.0334 62.282 19.0254C62.6465 19.0219 62.715 19.1044 62.5995 19.4714C62.2169 20.7126 61.4645 21.8074 60.443 22.6095C59.4215 23.4117 58.1795 23.883 56.883 23.9604C55.7253 24.0696 54.5604 23.848 53.5236 23.3212C52.4869 22.7945 51.621 21.9843 51.0265 20.9849C50.4014 20.0377 50.0479 18.9372 50.0045 17.8031C49.9612 16.6689 50.2296 15.5446 50.7805 14.5524C52.5845 11.0084 57.4105 10.0914 60.5435 12.6479C61.547 13.4578 62.2687 14.5642 62.6055 15.8089C62.7185 16.2089 62.6165 16.2884 62.241 16.2674C61.7755 16.2414 61.306 16.2614 60.838 16.2614Z" fill="#E6EDF3"/>
<path d="M74.015 22.7854C73.7131 23.238 73.3084 23.6127 72.8337 23.8786C72.3591 24.1446 71.8282 24.2943 71.2845 24.3154C67.1775 24.8024 64.179 22.0024 64.296 17.8654C64.36 15.6199 65.136 13.7694 67.046 12.5219C67.8219 12.0245 68.6994 11.7074 69.614 11.5938C70.5286 11.4803 71.4571 11.5733 72.331 11.8659C72.9994 12.0617 73.575 12.4916 73.9525 13.0769C74.0025 13.0374 74.0445 13.0194 74.045 13.0009C74.0615 11.9114 74.1571 12.0344 75.0951 12.0299C75.6496 12.0299 76.2045 12.0269 76.761 12.0299C77.3695 12.0339 77.452 12.1139 77.4505 12.7269C77.4469 15.9852 77.4416 19.2434 77.4346 22.5014C77.4346 22.7959 77.4386 23.0909 77.4346 23.3864C77.4469 23.4689 77.4391 23.5531 77.4121 23.632C77.385 23.7109 77.3395 23.7822 77.2792 23.8397C77.2188 23.8973 77.1455 23.9396 77.0654 23.9629C76.9853 23.9863 76.9009 23.99 76.8191 23.9739C76.1421 23.9574 75.4656 23.9739 74.7886 23.9689C74.1116 23.9639 74.0215 23.8734 74.0135 23.1824C74.0135 23.0994 74.015 23.0149 74.015 22.7854ZM73.8235 17.9619C73.8347 17.5665 73.7654 17.173 73.6197 16.8053C73.474 16.4376 73.255 16.1034 72.9761 15.823C72.6971 15.5427 72.364 15.322 71.9971 15.1745C71.6301 15.027 71.2369 14.9556 70.8415 14.9649C70.444 14.9698 70.0514 15.0529 69.686 15.2095C69.3206 15.3662 68.9896 15.5933 68.712 15.8778C68.4344 16.1624 68.2156 16.4988 68.068 16.8679C67.9204 17.2371 67.8469 17.6316 67.8518 18.0291C67.8567 18.4266 67.9398 18.8193 68.0964 19.1847C68.2531 19.5501 68.4802 19.881 68.7648 20.1586C69.0493 20.4363 69.3856 20.6551 69.7547 20.8027C70.1239 20.9503 70.5185 21.0238 70.916 21.0189C71.3115 21.0223 71.7035 20.9444 72.0677 20.7901C72.4319 20.6357 72.7606 20.4081 73.0332 20.1214C73.3058 19.8348 73.5164 19.4952 73.6523 19.1237C73.7882 18.7522 73.8468 18.3568 73.8235 17.9619Z" fill="#E6EDF3"/>
<path d="M73.2925 10.5722C73.1885 10.5635 73.084 10.5635 72.98 10.5722C72.6291 10.6703 72.2543 10.6344 71.9285 10.4715C71.6026 10.3086 71.3491 10.0303 71.2171 9.6907C71.0376 9.3077 70.7526 9.25069 70.5556 9.67619C70.4184 10.0114 70.1645 10.2856 69.841 10.4483C69.5174 10.611 69.1459 10.6511 68.7951 10.5612C68.311 10.5255 67.825 10.5223 67.3405 10.5517C67.2552 10.5675 67.1673 10.5546 67.0901 10.5151C67.0129 10.4756 66.9511 10.4116 66.9141 10.3332C66.8326 10.1542 66.9265 10.0332 67.031 9.91669C67.8194 9.04203 68.6093 8.1692 69.401 7.2982C69.4734 7.2113 69.5631 7.14049 69.6644 7.09029C69.7658 7.0401 69.8765 7.01162 69.9895 7.00669C70.5955 6.99719 71.2025 6.99719 71.8085 7.01069C71.9556 7.02414 72.098 7.06933 72.226 7.14314C72.3539 7.21694 72.4643 7.31761 72.5496 7.43819C73.2529 8.24919 73.9565 9.0597 74.6605 9.8697C74.789 10.0197 74.9211 10.1647 74.8256 10.3762C74.7301 10.5877 74.5216 10.5687 74.3311 10.5687L73.2925 10.5722Z" fill="#E6EDF3"/>
<path d="M117.297 17.9979V23.2524C117.297 23.8639 117.193 23.9674 116.568 23.9689C115.857 23.9709 115.145 23.9709 114.433 23.9689C113.8 23.9689 113.7 23.8714 113.702 23.2559C113.712 19.7184 113.73 16.1814 113.73 12.6444C113.73 12.1719 113.902 11.9909 114.374 12.0074C115.103 12.0324 115.832 12.0129 116.561 12.0139C117.261 12.0139 117.311 12.0639 117.314 12.7429V17.9979H117.297Z" fill="#E6EDF3"/>
<path d="M117.393 9.14751C117.396 9.51668 117.289 9.87825 117.086 10.1865C116.882 10.4948 116.592 10.7359 116.252 10.8793C115.912 11.0228 115.537 11.0621 115.174 10.9924C114.812 10.9226 114.478 10.747 114.216 10.4876C113.953 10.2282 113.773 9.89669 113.699 9.53507C113.624 9.17345 113.659 8.79792 113.798 8.45597C113.937 8.11402 114.175 7.82101 114.48 7.614C114.786 7.407 115.146 7.29529 115.515 7.293C116.01 7.28994 116.486 7.48361 116.838 7.83138C117.191 8.17915 117.39 8.65257 117.393 9.14751Z" fill="#E6EDF3"/>
</g>
</svg>
