<svg width="40" height="41" viewBox="0 0 40 41" fill="none" xmlns="http://www.w3.org/2000/svg">
<path d="M22.3566 13.1432C23.6582 14.4449 23.6582 16.5549 22.3566 17.8566C21.0549 19.1582 18.9449 19.1582 17.6432 17.8566C16.3416 16.5549 16.3416 14.4449 17.6432 13.1432C18.9449 11.8416 21.0549 11.8416 22.3566 13.1432" stroke="#3DAC45" stroke-width="2" stroke-linecap="round" stroke-linejoin="round"/>
<path d="M10.8333 12.1667V18.8334" stroke="#3DAC45" stroke-width="2" stroke-linecap="round" stroke-linejoin="round"/>
<path d="M29.1668 12.1667V18.8334" stroke="#3DAC45" stroke-width="2" stroke-linecap="round" stroke-linejoin="round"/>
<path d="M19.9998 27.1667V35.5001" stroke="#3DAC45" stroke-width="2" stroke-linecap="round" stroke-linejoin="round"/>
<path d="M20 35.5001L23.3333 32.1667" stroke="#3DAC45" stroke-width="2" stroke-linecap="round" stroke-linejoin="round"/>
<path d="M16.6665 32.1667L19.9998 35.5001" stroke="#3DAC45" stroke-width="2" stroke-linecap="round" stroke-linejoin="round"/>
<path d="M13.3333 25.5H8.33333C6.49167 25.5 5 24.0083 5 22.1667V8.83333C5 6.99167 6.49167 5.5 8.33333 5.5H31.6667C33.5083 5.5 35 6.99167 35 8.83333V22.1667C35 24.0083 33.5083 25.5 31.6667 25.5H26.6667" stroke="#3DAC45" stroke-width="2" stroke-linecap="round" stroke-linejoin="round"/>
</svg>
