<svg width="40" height="41" viewBox="0 0 40 41" fill="none" xmlns="http://www.w3.org/2000/svg">
<path d="M16.665 23.8334L23.3317 17.1667" stroke="#3DAC45" stroke-width="2" stroke-linecap="round" stroke-linejoin="round"/>
<path d="M35 30.4999L31.6667 33.8333" stroke="#3DAC45" stroke-width="2" stroke-linecap="round" stroke-linejoin="round"/>
<path d="M31.6667 25.4999L31.6667 33.8333" stroke="#3DAC45" stroke-width="2" stroke-linecap="round" stroke-linejoin="round"/>
<path d="M25 35.5H13.3333C8.73096 35.5 5 31.769 5 27.1667V13.8333C5 9.23096 8.73096 5.5 13.3333 5.5H26.6667C31.269 5.5 35 9.23096 35 13.8333V18.8333" stroke="#3DAC45" stroke-width="2" stroke-linecap="round" stroke-linejoin="round"/>
<path d="M28.3337 30.4999L31.667 33.8333" stroke="#3DAC45" stroke-width="2" stroke-linecap="round" stroke-linejoin="round"/>
<path d="M23.7499 24.0416C23.7495 24.1561 23.6564 24.2486 23.5419 24.2484C23.4274 24.2482 23.3348 24.1553 23.3348 24.0409C23.3348 23.9264 23.4274 23.8335 23.5419 23.8333C23.6564 23.8331 23.7495 23.9256 23.7499 24.0401V24.0416" stroke="#3DAC45" stroke-width="2" stroke-linecap="round" stroke-linejoin="round"/>
<path d="M16.2498 16.9583C16.2502 16.8438 16.3433 16.7513 16.4577 16.7515C16.5722 16.7517 16.6649 16.8446 16.6649 16.9591C16.6649 17.0736 16.5722 17.1664 16.4577 17.1666C16.3433 17.1668 16.2502 17.0743 16.2498 16.9598V16.9583" stroke="#3DAC45" stroke-width="2" stroke-linecap="round" stroke-linejoin="round"/>
</svg>
