<svg width="24" height="24" viewBox="0 0 24 24" fill="none" xmlns="http://www.w3.org/2000/svg">
<path d="M12.0377 3.29053C7.09761 3.29053 3.07723 7.16285 3.07548 11.9218C3.07432 13.4437 3.48774 14.929 4.27161 16.2372L3 20.7099L7.75142 19.5097C9.07309 20.2011 10.5427 20.5617 12.0343 20.5607H12.0377C16.9779 20.5607 20.9983 16.6878 21 11.9288C21.0012 9.62362 20.0698 7.45375 18.3772 5.82272C16.6852 4.19111 14.4352 3.29111 12.0377 3.29053ZM12.0377 19.1027H12.0348C10.6982 19.1027 9.3871 18.7566 8.24323 18.1028L7.97032 17.9472L5.15187 18.659L5.90439 16.0113L5.72729 15.7401C4.98343 14.6056 4.58745 13.2784 4.58806 11.9218C4.58981 7.96588 7.932 4.74853 12.0406 4.74853C14.0299 4.74911 15.9002 5.4964 17.3071 6.85221C18.714 8.20801 19.488 10.0109 19.4868 11.9282C19.4851 15.8841 16.1435 19.1027 12.0372 19.1027H12.0377ZM16.1237 13.7288C15.8996 13.6214 14.7987 13.0994 14.5932 13.0268C14.3882 12.9554 14.239 12.9182 14.0897 13.1342C13.9411 13.3502 13.5114 13.8362 13.3814 13.9796C13.2501 14.1236 13.1195 14.141 12.8954 14.0336C12.6712 13.9256 11.9495 13.698 11.0948 12.9629C10.4288 12.3916 9.97935 11.6855 9.84871 11.4689C9.71806 11.2535 9.83477 11.1368 9.94684 11.0294C10.0473 10.9336 10.171 10.7779 10.2825 10.6519C10.3939 10.5259 10.4311 10.4359 10.5066 10.2919C10.5809 10.1485 10.5437 10.0219 10.4874 9.91453C10.4311 9.80595 9.984 8.74453 9.79645 8.31311C9.61529 7.89272 9.43064 7.94904 9.29303 7.94208C9.16239 7.93627 9.01374 7.93453 8.86335 7.93453C8.71529 7.93453 8.472 7.98853 8.26645 8.20453C8.06148 8.42053 7.48258 8.94195 7.48258 10.0034C7.48258 11.0654 8.28503 12.0908 8.3971 12.2348C8.50916 12.3782 9.97645 14.5574 12.223 15.4922C12.7572 15.7134 13.1741 15.8464 13.4998 15.9463C14.0363 16.1106 14.5246 16.0868 14.9102 16.0316C15.3399 15.9695 16.2352 15.5102 16.421 15.0068C16.608 14.5034 16.608 14.0714 16.5523 13.9814C16.4977 13.8914 16.3479 13.8374 16.1237 13.7288Z" fill="#1A381B"/>
</svg>
