<svg width="40" height="40" viewBox="0 0 40 40" fill="none" xmlns="http://www.w3.org/2000/svg">
<path d="M31.5565 19.1115C31.5565 25.9848 25.9848 31.5565 19.1115 31.5565C12.2382 31.5565 6.6665 25.9848 6.6665 19.1115C6.6665 12.2382 12.2382 6.6665 19.1115 6.6665C25.9848 6.6665 31.5565 12.2382 31.5565 19.1115" stroke="#3DAC45" stroke-width="2" stroke-linecap="round" stroke-linejoin="round"/>
<path d="M33.3332 33.3332L27.9165 27.9165" stroke="#3DAC45" stroke-width="2" stroke-linecap="round" stroke-linejoin="round"/>
<path d="M21.9836 17.9165V15.7882C21.9836 14.2815 20.6986 12.9165 19.1119 12.9165C17.5252 12.9165 16.2402 14.2015 16.2402 15.7882V17.9165" stroke="#3DAC45" stroke-width="2" stroke-linecap="round" stroke-linejoin="round"/>
<path fill-rule="evenodd" clip-rule="evenodd" d="M22.4885 24.5832H15.7351C14.8385 24.5832 14.1118 23.8565 14.1118 22.9598V19.5398C14.1118 18.6432 14.8385 17.9165 15.7351 17.9165H22.4885C23.3851 17.9165 24.1118 18.6432 24.1118 19.5398V22.9598C24.1118 23.8565 23.3851 24.5832 22.4885 24.5832Z" stroke="#3DAC45" stroke-width="2" stroke-linecap="round" stroke-linejoin="round"/>
</svg>
