<svg width="40" height="40" viewBox="0 0 40 40" fill="none" xmlns="http://www.w3.org/2000/svg">
<path fill-rule="evenodd" clip-rule="evenodd" d="M16.6667 17.4116H23.3333C24.25 17.4116 25 18.1616 25 19.0783V24.1666C25 25.0866 24.2533 25.8333 23.3333 25.8333H16.6667C15.7467 25.8333 15 25.0866 15 24.1666V19.0783C15 18.1583 15.7467 17.4116 16.6667 17.4116Z" stroke="#3DAC45" stroke-width="2" stroke-linecap="round" stroke-linejoin="round"/>
<path d="M17.1934 17.4117V15.3067C17.1934 13.7567 18.45 12.5 20 12.5C21.55 12.5 22.8067 13.7567 22.8067 15.3067V17.4083" stroke="#3DAC45" stroke-width="2" stroke-linecap="round" stroke-linejoin="round"/>
<path fill-rule="evenodd" clip-rule="evenodd" d="M9.95484 8.44507L18.8582 5.20174C19.5948 4.9334 20.4032 4.9334 21.1398 5.20174L30.0432 8.44507C32.0198 9.16507 33.3332 11.0417 33.3332 13.1434V21.2634C33.3332 27.2317 30.2865 29.6801 21.6582 34.5651C20.6298 35.1467 19.3698 35.1467 18.3415 34.5651C9.71317 29.6801 6.6665 27.2317 6.6665 21.2634V13.1434C6.6665 11.0417 7.97984 9.16507 9.95484 8.44507Z" stroke="#3DAC45" stroke-width="2" stroke-linecap="round" stroke-linejoin="round"/>
</svg>
