<svg width="40" height="40" viewBox="0 0 40 40" fill="none" xmlns="http://www.w3.org/2000/svg">
<path d="M10.8296 4.16016L13.3306 6.6612L10.8296 9.16224" stroke="#3DAC45" stroke-width="2" stroke-linecap="round" stroke-linejoin="round"/>
<path d="M13.3305 6.66113H9.99574C7.23316 6.66113 4.99365 8.90064 4.99365 11.6632" stroke="#3DAC45" stroke-width="2" stroke-linecap="round" stroke-linejoin="round"/>
<path d="M29.1705 35.84L26.6694 33.3389L29.1705 30.8379" stroke="#3DAC45" stroke-width="2" stroke-linecap="round" stroke-linejoin="round"/>
<path d="M26.6694 33.339H30.0042C32.7667 33.339 35.0062 31.0995 35.0062 28.3369" stroke="#3DAC45" stroke-width="2" stroke-linecap="round" stroke-linejoin="round"/>
<path d="M16.9204 10.251C17.1539 9.93253 17.409 9.63058 17.6841 9.34726C21.2722 5.80688 27.0452 5.82622 30.6095 9.39056C34.1738 12.9549 34.1932 18.7279 30.6528 22.316C30.3685 22.5907 30.0636 22.8432 29.7407 23.0713" stroke="#3DAC45" stroke-width="2" stroke-linecap="round" stroke-linejoin="round"/>
<path fill-rule="evenodd" clip-rule="evenodd" d="M12.124 24.0192V22.0447C12.124 21.6396 12.3873 21.2814 12.774 21.1606L15.5529 20.2922C15.7328 20.2359 15.9256 20.2359 16.1055 20.2922L18.8844 21.1606C19.2712 21.2814 19.5345 21.6396 19.5345 22.0447V24.0192C19.5345 25.9498 18.3369 27.6779 16.5291 28.3558L15.9918 28.5573C15.887 28.5966 15.7714 28.5966 15.6666 28.5573L15.1294 28.3558C13.3217 27.678 12.124 25.9498 12.124 24.0192Z" stroke="#3DAC45" stroke-width="2" stroke-linecap="round" stroke-linejoin="round"/>
<circle cx="15.8316" cy="24.1683" r="9.17049" stroke="#3DAC45" stroke-width="2" stroke-linecap="round" stroke-linejoin="round"/>
</svg>
