<svg width="40" height="40" viewBox="0 0 40 40" fill="none" xmlns="http://www.w3.org/2000/svg">
<path d="M18.3333 25H21.6666C24.4283 25 26.6666 22.7616 26.6666 20V13.3333C26.6666 10.5716 24.4283 8.33331 21.6666 8.33331H8.33331C5.57165 8.33331 3.33331 10.5716 3.33331 13.3333V20C3.33331 22.7616 5.57165 25 8.33331 25V25" stroke="#3DAC45" stroke-width="2.4" stroke-linecap="round" stroke-linejoin="round"/>
<path d="M21.6666 15H18.3333C15.5716 15 13.3333 17.2383 13.3333 20V26.6667C13.3333 29.4283 15.5716 31.6667 18.3333 31.6667H31.6666C34.4283 31.6667 36.6666 29.4283 36.6666 26.6667V20C36.6666 17.2383 34.4283 15 31.6666 15V15" stroke="#3DAC45" stroke-width="2.4" stroke-linecap="round" stroke-linejoin="round"/>
</svg>
